<svg width="192" height="36" viewBox="0 0 192 36" fill="none" xmlns="http://www.w3.org/2000/svg">
<path d="M0.34375 6.94531C0.34375 5.70833 0.64974 4.58203 1.26172 3.56641C1.88672 2.55078 2.72005 1.74349 3.76172 1.14453C4.81641 0.532552 5.97526 0.226562 7.23828 0.226562H21.6133V4.32812H7.23828C6.48307 4.32812 5.83203 4.59505 5.28516 5.12891C4.73828 5.66276 4.46484 6.30729 4.46484 7.0625V8.97656C4.46484 9.66667 4.73828 10.2591 5.28516 10.7539C5.83203 11.2487 6.48307 11.4961 7.23828 11.4961H16.0859C17.362 11.4961 18.5208 11.8021 19.5625 12.4141C20.6042 13.013 21.431 13.8268 22.043 14.8555C22.668 15.8711 22.9805 16.9974 22.9805 18.2344V21.2617C22.9805 22.4987 22.668 23.6315 22.043 24.6602C21.431 25.6758 20.6042 26.4896 19.5625 27.1016C18.5208 27.7005 17.362 28 16.0859 28H0.363281V23.8789H16.0859C16.8542 23.8789 17.5052 23.625 18.0391 23.1172C18.5859 22.5964 18.8594 21.9714 18.8594 21.2422V18.2539C18.8594 17.5247 18.5859 16.8997 18.0391 16.3789C17.5052 15.8581 16.8542 15.5977 16.0859 15.5977H7.23828C5.97526 15.5977 4.81641 15.3047 3.76172 14.7188C2.72005 14.1198 1.88672 13.319 1.26172 12.3164C0.64974 11.3138 0.34375 10.207 0.34375 8.99609V6.94531ZM27.6875 11.8867C27.6875 10.7539 28.0911 9.78385 28.8984 8.97656C29.7057 8.16927 30.6823 7.76562 31.8281 7.76562H38C39.6667 7.76562 41.0339 8.28646 42.1016 9.32812C43.1432 8.28646 44.5104 7.76562 46.2031 7.76562H49.25C50.5911 7.76562 51.8151 8.09766 52.9219 8.76172C54.0286 9.41276 54.9076 10.2917 55.5586 11.3984C56.2227 12.4922 56.5547 13.7096 56.5547 15.0508V28H52.4531V15.1094C52.4531 14.2109 52.1406 13.4492 51.5156 12.8242C50.8906 12.1862 50.1354 11.8672 49.25 11.8672H46.2031C45.6302 11.8672 45.1419 12.0495 44.7383 12.4141C44.3346 12.7656 44.1328 13.1953 44.1328 13.7031V28H40.0117V13.7031C40.0117 13.1953 39.8164 12.7656 39.4258 12.4141C39.0352 12.0495 38.5599 11.8672 38 11.8672H31.8086V28H27.6875V11.8867ZM61.0469 15.0312C61.0469 13.6901 61.3724 12.4727 62.0234 11.3789C62.6875 10.2852 63.5729 9.41276 64.6797 8.76172C65.7865 8.09766 67.0104 7.76562 68.3516 7.76562H79.6406V28H75.5195V11.8867H68.3516C67.4792 11.8867 66.7305 12.1992 66.1055 12.8242C65.4805 13.4362 65.168 14.1849 65.168 15.0703V20.6562C65.168 21.5417 65.4805 22.3034 66.1055 22.9414C66.7305 23.5664 67.4792 23.8789 68.3516 23.8789H73.1758V28H68.3516C67.0104 28 65.7865 27.6745 64.6797 27.0234C63.5729 26.3594 62.6875 25.474 62.0234 24.3672C61.3724 23.2604 61.0469 22.0365 61.0469 20.6953V15.0312ZM84.3281 13.4297C84.3281 12.388 84.5885 11.4375 85.1094 10.5781C85.6432 9.71875 86.3464 9.03516 87.2188 8.52734C88.1042 8.01953 89.0807 7.76562 90.1484 7.76562H94.6602V11.8672H90.1484C89.6797 11.8672 89.276 12.0299 88.9375 12.3555C88.612 12.668 88.4492 13.0521 88.4492 13.5078V28H84.3281V13.4297ZM97.4141 7.76562H100.051V0.226562H104.172V7.76562H110.402V11.8867H104.172V22.2578C104.172 22.7005 104.341 23.0846 104.68 23.4102C105.031 23.7227 105.448 23.8789 105.93 23.8789H110.402V28H105.871C104.803 28 103.827 27.7461 102.941 27.2383C102.069 26.7174 101.366 26.0273 100.832 25.168C100.311 24.2956 100.051 23.332 100.051 22.2773V11.8867H97.4141V7.76562Z" fill="#7AB78D"/>
<path d="M114.133 8.03906C114.133 6.59375 114.504 5.28516 115.246 4.11328C116.001 2.92839 117.004 1.98438 118.254 1.28125C119.504 0.578125 120.891 0.226562 122.414 0.226562H135.559V4.32812H122.414C121.268 4.32812 120.285 4.69271 119.465 5.42188C118.658 6.13802 118.254 7.00391 118.254 8.01953V20.207C118.254 21.2227 118.658 22.0951 119.465 22.8242C120.285 23.5404 121.268 23.8984 122.414 23.8984H128.918C130.077 23.8984 131.06 23.5404 131.867 22.8242C132.674 22.0951 133.078 21.2227 133.078 20.207V16.5742H125.539V12.4727H137.199V20.1875C137.199 21.6198 136.828 22.9284 136.086 24.1133C135.344 25.2982 134.341 26.2422 133.078 26.9453C131.828 27.6484 130.441 28 128.918 28H122.414C120.891 28 119.504 27.6484 118.254 26.9453C117.004 26.2422 116.001 25.2982 115.246 24.1133C114.504 22.9284 114.133 21.6198 114.133 20.1875V8.03906ZM145.109 7.76562L150.363 21.7891L155.734 7.76562H160.285L149.543 35.6172H145.031L148.176 27.3359L140.734 7.76562H145.109ZM163.039 11.8867C163.039 10.7539 163.443 9.78385 164.25 8.97656C165.057 8.16927 166.034 7.76562 167.18 7.76562H173.352C175.018 7.76562 176.385 8.28646 177.453 9.32812C178.495 8.28646 179.862 7.76562 181.555 7.76562H184.602C185.943 7.76562 187.167 8.09766 188.273 8.76172C189.38 9.41276 190.259 10.2917 190.91 11.3984C191.574 12.4922 191.906 13.7096 191.906 15.0508V28H187.805V15.1094C187.805 14.2109 187.492 13.4492 186.867 12.8242C186.242 12.1862 185.487 11.8672 184.602 11.8672H181.555C180.982 11.8672 180.493 12.0495 180.09 12.4141C179.686 12.7656 179.484 13.1953 179.484 13.7031V28H175.363V13.7031C175.363 13.1953 175.168 12.7656 174.777 12.4141C174.387 12.0495 173.911 11.8672 173.352 11.8672H167.16V28H163.039V11.8867Z" fill="white"/>
</svg>
